<svg width="52" height="15" viewBox="0 0 52 15" fill="none" xmlns="http://www.w3.org/2000/svg">
<path d="M8.71764 0.634277H2.49258C0.836026 0.634277 0 1.42695 0 2.99701V11.4C0 11.6058 0.112139 11.7326 0.353738 11.7326H2.23548C2.46067 11.7326 2.60563 11.6058 2.60563 11.4V11.081C2.60563 10.3027 2.9384 9.87851 3.76531 9.79673H8.71764C10.5347 9.79673 11.3552 9.02023 11.3552 7.32345V3.10755C11.3552 1.41077 10.5347 0.634277 8.71764 0.634277ZM8.75229 6.60987C8.75229 7.53016 8.54077 7.71979 7.43033 7.71979H4.79279C3.68325 7.71979 2.97487 8.08467 2.60472 8.79825V3.61533C2.60472 2.90175 2.78159 2.71122 3.66593 2.71122H7.43033C8.54077 2.71122 8.75229 2.90175 8.75229 3.82114V6.60987Z" fill="#D4C2FF"/>
<path d="M17.3222 5.28007C15.8908 5.28007 15.2791 5.99365 15.2791 7.19883V11.4318C15.2791 11.6223 15.1824 11.7329 14.9572 11.7329H13.2524C13.0272 11.7329 12.915 11.6223 12.915 11.4318V3.69473C12.915 3.5042 13.0272 3.39276 13.2524 3.39276H14.6837C14.8934 3.39276 15.0056 3.5042 15.0056 3.69473V4.94305C15.2791 3.91311 16.0677 3.38916 17.4671 3.38916H18.0461C18.2548 3.38916 18.367 3.5006 18.367 3.69113V4.979C18.367 5.1848 18.2548 5.28007 18.0461 5.28007H17.3222Z" fill="#D4C2FF"/>
<path d="M28.4196 9.46538C28.4196 11.0354 27.7121 11.7329 26.0236 11.7329H21.8417C20.1687 11.7329 19.4448 11.0354 19.4448 9.46538V5.662C19.4448 4.09284 20.1687 3.39453 21.8417 3.39453H26.0236C27.7121 3.39453 28.4196 4.09284 28.4196 5.662V9.46538ZM26.0555 6.26325C26.0555 5.43822 25.8951 5.28005 24.8977 5.28005H22.9831C21.9702 5.28005 21.8089 5.43822 21.8089 6.26325V8.86324C21.8089 9.68737 21.9702 9.84644 22.9831 9.84644H24.8977C25.8951 9.84644 26.0555 9.68737 26.0555 8.86324V6.26325Z" fill="#D4C2FF"/>
<path d="M30.7999 5.27998H29.9949C29.7852 5.27998 29.6731 5.18472 29.6731 4.97891V3.69464C29.6731 3.50411 29.7852 3.39267 29.9949 3.39267H30.799V2.36273C30.8 0.792671 31.636 0 33.2925 0H35.2709C35.4961 0 35.5927 0.111441 35.5927 0.301071V1.58534C35.5927 1.79205 35.4961 1.88641 35.2709 1.88641H34.2261C33.3408 1.88641 33.164 2.07694 33.164 2.79053V3.39267H35.2709C35.4961 3.39267 35.5927 3.50411 35.5927 3.69464V4.97891C35.5927 5.18472 35.4961 5.27998 35.2709 5.27998H33.164V11.4317C33.164 11.6222 33.0518 11.7328 32.8266 11.7328H31.1218C30.8966 11.7328 30.7999 11.6222 30.7999 11.4317V5.27998Z" fill="#D4C2FF"/>
<path d="M37.3622 5.27998H36.559C36.3502 5.27998 36.238 5.18472 36.238 4.97891V3.69464C36.238 3.50411 36.3502 3.39267 36.559 3.39267H37.364V2.36273C37.3622 0.792671 38.2 0 39.8547 0H41.8331C42.0583 0 42.1549 0.111441 42.1549 0.301071V1.58534C42.1549 1.79205 42.0583 1.88641 41.8331 1.88641H40.7874C39.9031 1.88641 39.7262 2.07694 39.7262 2.79053V3.39267H41.8331C42.0583 3.39267 42.1549 3.50411 42.1549 3.69464V4.97891C42.1549 5.18472 42.0583 5.27998 41.8331 5.27998H39.7262V11.4317C39.7262 11.6222 39.6131 11.7328 39.3879 11.7328H37.6831C37.4579 11.7328 37.3622 11.6222 37.3622 11.4317V5.27998Z" fill="#D4C2FF"/>
<path d="M49.3437 14.9672H45.8373C44.2619 14.9672 43.5863 14.3651 43.5863 12.8741V12.7159C43.5816 12.6734 43.5867 12.6303 43.6013 12.59C43.6158 12.5496 43.6393 12.513 43.6702 12.4829C43.701 12.4528 43.7383 12.4299 43.7794 12.4159C43.8204 12.4019 43.8641 12.3973 43.9072 12.4023H45.5483C45.7735 12.4023 45.8856 12.5137 45.8856 12.7195V12.7986C45.8856 13.1158 46.0634 13.2426 46.4171 13.2426H48.4438C49.4084 13.2426 49.65 13.0053 49.65 12.1964V9.69531C49.2799 10.4089 48.5724 10.7738 47.4619 10.7738H45.8209C44.1479 10.7738 43.4076 10.0764 43.4076 8.50631V3.69456C43.4054 3.65301 43.4124 3.61149 43.428 3.57284C43.4436 3.53419 43.4675 3.49932 43.4981 3.47064C43.5287 3.44196 43.5652 3.42013 43.6051 3.40666C43.645 3.39319 43.6875 3.38839 43.7294 3.39259H45.4507C45.6595 3.39259 45.7726 3.50403 45.7726 3.69456V7.90866C45.7726 8.73278 45.9494 8.89186 46.9468 8.89186H48.1694C49.2306 8.89186 49.6491 8.46317 49.6491 7.59141V3.69456C49.6491 3.50403 49.7612 3.39259 49.9709 3.39259H51.6931C51.7343 3.38867 51.7758 3.3938 51.8148 3.4076C51.8537 3.4214 51.889 3.44354 51.9182 3.47241C51.9474 3.50129 51.9698 3.53619 51.9837 3.5746C51.9976 3.61301 52.0026 3.65398 51.9985 3.69456V12.4463C51.9976 14.1098 51.0969 14.9672 49.3437 14.9672Z" fill="#D4C2FF"/>
</svg>
